<?xml version="1.0" encoding="utf-8"?>
<!DOCTYPE svg PUBLIC "-//W3C//DTD SVG 1.1//EN" "http://www.w3.org/Graphics/SVG/1.1/DTD/svg11.dtd">
<svg version="1.1" id="Calque_1" xmlns="http://www.w3.org/2000/svg" xmlns:xlink="http://www.w3.org/1999/xlink" x="0px" y="0px"
	 width="102.301px" height="68.595px" viewBox="0 0 102.301 68.595" enable-background="new 0 0 102.301 68.595"
	 xml:space="preserve">
	<circle fill="#56C7C7" cx="51.15" cy="20.042" r="20.042"/>
	<circle opacity="0.32" fill="#56FFC7" cx="51.15" cy="20.042" r="20.042"/>
	<path fill="none" stroke="#56C7C7" stroke-width="2" stroke-miterlimit="10" d="M102.301,63.866c-2.559,0-2.666,3.352-5.115,3.352
		s-2.557-3.352-5.115-3.352c-2.557,0-2.663,3.352-5.113,3.352c-2.449,0-2.559-3.352-5.117-3.352c-2.557,0-2.664,3.352-5.113,3.352
		c-2.45,0-2.559-3.352-5.115-3.352c-2.558,0-2.666,3.352-5.115,3.352s-2.557-3.352-5.115-3.352s-2.666,3.352-5.115,3.352
		s-2.557-3.352-5.115-3.352"/>
	<path fill="none" stroke="#56C7C7" stroke-width="2" stroke-miterlimit="10" d="M51.15,63.866c-2.557,0-2.664,3.352-5.115,3.352
		c-2.449,0-2.557-3.352-5.113-3.352c-2.558,0-2.666,3.352-5.115,3.352s-2.557-3.352-5.116-3.352c-2.558,0-2.665,3.352-5.114,3.352
		c-2.45,0-2.559-3.352-5.115-3.352c-2.558,0-2.666,3.352-5.115,3.352s-2.557-3.352-5.115-3.352c-2.558,0-2.664,3.352-5.114,3.352
		S2.559,63.866,0,63.866"/>
		<path fill="#FFFFFF" d="M52.315,20.041l4.568-4.565c0.319-0.321,0.319-0.844,0-1.166c-0.322-0.321-0.848-0.321-1.167,0
			l-4.567,4.565l-4.565-4.565c-0.321-0.321-0.844-0.321-1.166,0c-0.321,0.322-0.321,0.845,0,1.166l4.565,4.565l-4.565,4.567
			c-0.321,0.32-0.321,0.845,0,1.166c0.322,0.32,0.845,0.32,1.166,0l4.565-4.566l4.567,4.566c0.319,0.32,0.845,0.32,1.167,0
			c0.319-0.321,0.319-0.846,0-1.166L52.315,20.041z"/>
</svg>