<?xml version="1.0" encoding="utf-8"?>
<!-- Generator: Adobe Illustrator 16.0.0, SVG Export Plug-In . SVG Version: 6.00 Build 0)  -->
<!DOCTYPE svg PUBLIC "-//W3C//DTD SVG 1.1//EN" "http://www.w3.org/Graphics/SVG/1.1/DTD/svg11.dtd">
<svg version="1.1" id="Calque_1" xmlns="http://www.w3.org/2000/svg" xmlns:xlink="http://www.w3.org/1999/xlink" x="0px" y="0px"
	 width="95px" height="6px" viewBox="0 0 95 6" enable-background="new 0 0 95 6" xml:space="preserve">
<g>
	<path fill="none" stroke="#312646" stroke-width="3" stroke-miterlimit="10" d="M95,1.5c-2.376,0-2.476,3-4.75,3
		c-2.275,0-2.375-3-4.751-3c-2.373,0-2.473,3-4.749,3s-2.375-3-4.751-3c-2.375,0-2.476,3-4.749,3c-2.275,0-2.376-3-4.75-3
		c-2.376,0-2.476,3-4.751,3c-2.276,0-2.375-3-4.75-3s-2.475,3-4.75,3c-2.274,0-2.374-3-4.75-3"/>
	<path fill="none" stroke="#312646" stroke-width="3" stroke-miterlimit="10" d="M47.5,1.5c-2.375,0-2.475,3-4.75,3
		c-2.274,0-2.374-3-4.75-3c-2.375,0-2.475,3-4.75,3c-2.274,0-2.375-3-4.751-3c-2.375,0-2.475,3-4.75,3c-2.274,0-2.374-3-4.75-3
		c-2.375,0-2.475,3-4.75,3c-2.274,0-2.375-3-4.75-3s-2.475,3-4.75,3c-2.275,0-2.375-3-4.751-3"/>
</g>
</svg>
