<?xml version="1.0" encoding="utf-8"?>
<!DOCTYPE svg PUBLIC "-//W3C//DTD SVG 1.1//EN" "http://www.w3.org/Graphics/SVG/1.1/DTD/svg11.dtd">
<svg version="1.1" id="Calque_1" xmlns="http://www.w3.org/2000/svg" xmlns:xlink="http://www.w3.org/1999/xlink" x="0px" y="0px"
	 width="8.238px" height="17.91px" viewBox="0 0 8.238 17.91" enable-background="new 0 0 8.238 17.91" xml:space="preserve">
    <path fill="#614B8C" d="M6.297,0c1.199,0,1.799,0.818,1.799,1.754c0,1.168-1.043,2.248-2.398,2.248
			c-1.137,0-1.799-0.672-1.768-1.781C3.93,1.285,4.719,0,6.297,0z M2.604,17.91c-0.947,0-1.641-0.584-0.979-3.155l1.088-4.559
			c0.189-0.73,0.221-1.022,0-1.022c-0.285,0-1.514,0.504-2.24,1.001L0,9.387C2.303,7.43,4.953,6.281,6.09,6.281
			c0.945,0,1.104,1.14,0.631,2.893l-1.244,4.792c-0.223,0.847-0.127,1.14,0.094,1.14c0.283,0,1.215-0.352,2.131-1.082l0.537,0.73
			C5.996,17.032,3.551,17.91,2.604,17.91z"/>
</svg>
