<?xml version="1.0" encoding="UTF-8" standalone="no"?>
<svg width="60px" height="59px" viewBox="0 0 60 59" version="1.1" xmlns="http://www.w3.org/2000/svg" xmlns:xlink="http://www.w3.org/1999/xlink" xmlns:sketch="http://www.bohemiancoding.com/sketch/ns">
    <!-- Generator: Sketch 3.2.2 (9983) - http://www.bohemiancoding.com/sketch -->
    <title>next</title>
    <desc>Created with Sketch.</desc>
    <defs></defs>
    <g id="Page-1" stroke="none" stroke-width="1" fill="none" fill-rule="evenodd" sketch:type="MSPage">
        <g id="next" sketch:type="MSLayerGroup" fill="#614B8C">
            <circle id="Oval" opacity="0.24" sketch:type="MSShapeGroup" cx="30.305" cy="29.482" r="29.404"></circle>
            <g id="Group" transform="translate(21.000000, 22.000000)" sketch:type="MSShapeGroup">
                <path d="M10.762,8.071 C10.762,8.424 10.41,8.676 10.41,8.676 L1.315,14.925 C0.592,15.408 0,15.053 0,14.137 L0,2.004 C0,1.088 0.592,0.733 1.315,1.215 L10.41,7.465 C10.41,7.465 10.762,7.718 10.762,8.071 L10.762,8.071 Z M21.869,7.465 L12.447,1.215 C11.722,0.734 11.131,1.088 11.131,2.004 L11.131,14.137 C11.131,15.053 11.723,15.408 12.447,14.925 L21.869,8.676 C21.869,8.676 22.221,8.424 22.221,8.071 C22.221,7.718 21.869,7.465 21.869,7.465 L21.869,7.465 Z" id="Shape"></path>
            </g>
        </g>
    </g>
</svg>