<?xml version="1.0" encoding="UTF-8" standalone="no"?>
<svg width="60px" height="60px" viewBox="0 0 60 60" version="1.1" xmlns="http://www.w3.org/2000/svg" xmlns:xlink="http://www.w3.org/1999/xlink" xmlns:sketch="http://www.bohemiancoding.com/sketch/ns">
    <!-- Generator: Sketch 3.2.2 (9983) - http://www.bohemiancoding.com/sketch -->
    <title>prev</title>
    <desc>Created with Sketch.</desc>
    <defs></defs>
    <g id="Page-1" stroke="none" stroke-width="1" fill="none" fill-rule="evenodd" sketch:type="MSPage">
        <g id="prev" sketch:type="MSLayerGroup" fill="#614B8C">
            <circle id="Oval" opacity="0.24" sketch:type="MSShapeGroup" cx="29.917" cy="29.659" r="29.405"></circle>
            <g id="Group" transform="translate(17.000000, 21.000000)" sketch:type="MSShapeGroup">
                <path d="M11.459,8.07 C11.459,7.718 11.813,7.466 11.813,7.466 L20.907,1.216 C21.631,0.733 22.223,1.088 22.223,2.004 L22.223,14.137 C22.223,15.052 21.63,15.407 20.907,14.925 L11.813,8.674 C11.813,8.674 11.459,8.422 11.459,8.07 L11.459,8.07 Z M0.354,8.674 L9.776,14.925 C10.499,15.406 11.092,15.052 11.092,14.137 L11.092,2.004 C11.092,1.087 10.498,0.733 9.776,1.216 L0.354,7.466 C0.354,7.465 0,7.718 0,8.07 C0,8.422 0.354,8.674 0.354,8.674 L0.354,8.674 Z" id="Shape"></path>
            </g>
        </g>
    </g>
</svg>