<?xml version="1.0" encoding="UTF-8" standalone="no"?>
<svg width="59px" height="60px" viewBox="0 0 59 60" version="1.1" xmlns="http://www.w3.org/2000/svg" xmlns:xlink="http://www.w3.org/1999/xlink" xmlns:sketch="http://www.bohemiancoding.com/sketch/ns">
    <!-- Generator: Sketch 3.2.2 (9983) - http://www.bohemiancoding.com/sketch -->
    <title>refresh</title>
    <desc>Created with Sketch.</desc>
    <defs></defs>
    <g id="Page-1" stroke="none" stroke-width="1" fill="none" fill-rule="evenodd" sketch:type="MSPage">
        <g id="refresh" sketch:type="MSLayerGroup" transform="translate(-1.000000, 0.000000)" fill="#614B8C">
            <g id="Page-1" sketch:type="MSShapeGroup">
                <g id="refresh">
                    <g id="Page-1">
                        <g id="refresh">
                            <circle id="Oval" opacity="0.24" cx="30.399" cy="29.988" r="29.405"></circle>
                            <g id="Group" transform="translate(19.000000, 17.000000)">
                                <path d="M0,13.592 C0,19.675 5.591,24.975 11.677,24.975 C16.019,24.975 19.771,22.982 21.568,19.337 C22.293,17.871 19.304,17.235 18.621,18.504 C17.225,21.016 14.622,21.44 11.679,21.44 C7.248,21.44 3.448,17.807 3.448,13.592 C3.448,9.232 7.318,5.631 11.679,5.631 C13.167,5.631 14.125,5.959 14.741,6.335 C15.495,6.795 15.374,7.964 14.79,8.627 C13.693,9.874 12.354,11.462 12.354,11.462 C11.082,12.735 12.522,12.715 12.522,12.715 L20.46,12.719 C21.343,12.719 22.399,12.849 22.648,12.615 C22.898,12.381 22.763,11.316 22.765,10.433 L22.777,1.592 C22.761,0.276 21.486,1.562 21.486,1.562 L19.515,3.594 C18.901,4.229 17.896,4.226 17.153,3.749 C16.038,3.033 14.191,2.197 11.677,2.238 C5.591,2.238 0,7.5 0,13.592 L0,13.592 L0,13.592 Z" id="Shape"></path>
                            </g>
                        </g>
                    </g>
                </g>
            </g>
        </g>
    </g>
</svg>