<?xml version="1.0" encoding="UTF-8" standalone="no"?>
<svg width="79px" height="80px" viewBox="0 0 79 80" version="1.1" xmlns="http://www.w3.org/2000/svg" xmlns:xlink="http://www.w3.org/1999/xlink" xmlns:sketch="http://www.bohemiancoding.com/sketch/ns">
    <!-- Generator: Sketch 3.2.2 (9983) - http://www.bohemiancoding.com/sketch -->
    <title>rocket</title>
    <desc>Created with Sketch.</desc>
    <defs></defs>
    <g id="Page-1" stroke="none" stroke-width="1" fill="none" fill-rule="evenodd" sketch:type="MSPage">
        <g id="rocket" sketch:type="MSLayerGroup" transform="translate(-1.000000, 0.000000)">
            <rect id="Rectangle-1" fill="#F4C700" sketch:type="MSShapeGroup" x="1" y="0" width="79" height="80"></rect>
            <path d="M79.516,0.461 C79.193,0.154 78.808,0 78.353,0 C69.937,0 62.986,1.146 57.505,3.438 C52.022,5.729 46.247,9.893 40.185,15.926 C37.605,18.54 34.767,21.688 31.671,25.367 L13.337,26.333 C12.821,26.4 12.4,26.657 12.078,27.109 L1.24,45.698 C0.853,46.343 0.934,46.971 1.482,47.586 L4.579,50.684 C4.87,50.974 5.24,51.119 5.691,51.119 C5.886,51.119 6.028,51.103 6.126,51.07 L19.479,46.954 L33.073,60.558 L28.96,73.918 C28.799,74.499 28.93,75.014 29.348,75.466 L32.445,78.564 C32.8,78.854 33.17,79 33.559,79 C33.848,79 34.106,78.937 34.33,78.808 L52.91,67.966 C53.361,67.642 53.618,67.222 53.683,66.707 L54.652,48.36 C58.327,45.262 61.472,42.422 64.085,39.841 C69.828,34.064 73.913,28.246 76.35,22.39 C78.785,16.532 80,9.586 80,1.55 C80,1.131 79.84,0.769 79.516,0.461 L79.516,0.461 Z M67.811,18.782 C66.907,19.685 65.811,20.138 64.519,20.138 C63.231,20.138 62.134,19.687 61.231,18.782 C60.329,17.88 59.877,16.783 59.877,15.491 C59.877,14.2 60.328,13.102 61.231,12.198 C62.134,11.295 63.231,10.844 64.519,10.844 C65.811,10.844 66.907,11.294 67.811,12.198 C68.711,13.102 69.165,14.2 69.165,15.491 C69.165,16.783 68.712,17.88 67.811,18.782 L67.811,18.782 Z" id="Shape" fill="#CDA700" sketch:type="MSShapeGroup"></path>
        </g>
    </g>
</svg>