<?xml version="1.0" encoding="UTF-8" standalone="no"?>
<svg width="64px" height="64px" viewBox="0 0 64 64" version="1.1" xmlns="http://www.w3.org/2000/svg" xmlns:xlink="http://www.w3.org/1999/xlink" xmlns:sketch="http://www.bohemiancoding.com/sketch/ns">
    <!-- Generator: Sketch 3.2.2 (9983) - http://www.bohemiancoding.com/sketch -->
    <title>twitter</title>
    <desc>Created with Sketch.</desc>
    <defs></defs>
    <g id="Page-1" stroke="none" stroke-width="1" fill="none" fill-rule="evenodd" sketch:type="MSPage">
        <g id="twitter" sketch:type="MSLayerGroup" fill="#614B8C">
            <g id="Page-1" sketch:type="MSShapeGroup">
                <g id="twitter">
                    <circle id="Oval" opacity="0.24" cx="32.271" cy="31.975" r="31.446"></circle>
                    <path d="M43.492,25.42 C44.686,24.686 45.476,23.686 45.864,22.412 C44.703,23.029 43.545,23.451 42.388,23.685 C41.35,22.568 40.034,22 38.457,22 C36.915,22 35.612,22.541 34.55,23.594 C33.492,24.655 32.959,25.942 32.959,27.446 C32.959,27.903 33.017,28.31 33.132,28.657 C28.584,28.5 24.82,26.613 21.855,22.983 C21.353,23.872 21.102,24.777 21.102,25.713 C21.102,27.635 21.913,29.16 23.534,30.279 C22.609,30.201 21.794,29.967 21.102,29.584 C21.102,30.957 21.504,32.105 22.314,33.114 C23.126,34.113 24.168,34.75 25.44,35.022 C24.979,35.14 24.493,35.197 23.994,35.197 C23.532,35.197 23.206,35.158 23.012,35.074 C23.353,36.193 23.994,37.101 24.921,37.796 C25.845,38.494 26.907,38.861 28.103,38.895 C26.133,40.44 23.881,41.204 21.334,41.204 C20.71,41.204 20.269,41.196 20.001,41.148 C22.51,42.778 25.302,43.586 28.392,43.586 C31.554,43.586 34.348,42.784 36.78,41.182 C39.212,39.588 41.008,37.622 42.16,35.307 C43.319,32.994 43.892,30.588 43.892,28.075 L43.892,27.383 C45.013,26.54 45.919,25.591 46.613,24.543 C45.605,24.977 44.566,25.27 43.492,25.42 L43.492,25.42 L43.492,25.42 Z" id="Shape"></path>
                </g>
            </g>
        </g>
    </g>
</svg>