<?xml version="1.0" encoding="UTF-8" standalone="no"?>
<svg width="103px" height="6px" viewBox="0 0 103 6" version="1.1" xmlns="http://www.w3.org/2000/svg" xmlns:xlink="http://www.w3.org/1999/xlink" xmlns:sketch="http://www.bohemiancoding.com/sketch/ns">
    <!-- Generator: Sketch 3.2.2 (9983) - http://www.bohemiancoding.com/sketch -->
    <title>zigzag-green</title>
    <desc>Created with Sketch.</desc>
    <defs></defs>
    <g id="Page-1" stroke="none" stroke-width="1" fill="none" fill-rule="evenodd" sketch:type="MSPage">
        <g id="zigzag-green" sketch:type="MSLayerGroup" transform="translate(0.000000, 1.000000)" stroke-width="2" stroke="#56C7C7" fill="#FFFFFF">
            <g id="Page-1" sketch:type="MSShapeGroup">
                <g id="zigzag--green---copie">
                    <g id="Page-1">
                        <g id="zigzag--green">
                            <g id="Page-1">
                                <g id="zigzag--green">
                                    <g id="Group-2">
                                        <g id="Shape">
                                            <path d="M102.301,0 C99.742,0 99.635,3.351 97.186,3.351 C94.737,3.351 94.629,0 92.07,0 C89.513,0 89.406,3.351 86.957,3.351 C84.507,3.351 84.398,0 81.84,0 C79.283,0 79.175,3.351 76.726,3.351 C74.275,3.351 74.168,0 71.611,0 C69.052,0 68.945,3.351 66.496,3.351 C64.047,3.351 63.938,0 61.381,0 C58.822,0 58.715,3.351 56.266,3.351 C53.817,3.351 53.709,0 51.15,0"></path>
                                            <path d="M51.15,0 C48.592,0 48.485,3.351 46.035,3.351 C43.586,3.351 43.479,0 40.921,0 C38.363,0 38.256,3.351 35.807,3.351 C33.358,3.351 33.249,0 30.689,0 C28.132,0 28.025,3.351 25.575,3.351 C23.125,3.351 23.018,0 20.461,0 C17.902,0 17.795,3.351 15.346,3.351 C12.897,3.351 12.788,0 10.23,0 C7.672,0 7.565,3.351 5.115,3.351 C2.666,3.351 2.559,0 0,0"></path>
                                        </g>
                                    </g>
                                </g>
                            </g>
                        </g>
                    </g>
                </g>
            </g>
        </g>
    </g>
</svg>